<svg width="32" height="32" viewBox="0 0 32 32" xmlns="http://www.w3.org/2000/svg">
  <rect width="32" height="32" rx="7" fill="#0a0a08"/>
  <path d="M9 10.5 C9 8.5 11 7 13.5 7 L18 7 C20.5 7 22 8.2 22 10 C22 11.5 21 12.5 19.5 13 L15.5 14.2 C13.2 14.9 11.5 16 11.5 18.2 L11.5 19 L22 19 L22 21.5 L9 21.5 L9 18 C9 15 11 13.5 13.8 12.6 L17.8 11.4 C19 11 19.5 10.4 19.5 9.8 C19.5 9 18.8 8.5 17.5 8.5 L13.8 8.5 C12.3 8.5 11.5 9.3 11.5 10.5 Z" fill="#ff5e1a"/>
  <rect x="9" y="22.5" width="13" height="2.5" rx="1.25" fill="#ff5e1a" opacity="0.35"/>
</svg>
